<?xml version="1.0" encoding="utf-8"?>
<!-- Generator: Adobe Illustrator 19.2.0, SVG Export Plug-In . SVG Version: 6.00 Build 0)  -->
<svg version="1.1" id="Layer_1" xmlns="http://www.w3.org/2000/svg" xmlns:xlink="http://www.w3.org/1999/xlink" x="0px" y="0px"
	 viewBox="0 0 95 95" style="enable-background:new 0 0 95 95;" xml:space="preserve">
<style type="text/css">
	.st0{fill:#F75831;}
	.st1{fill:none;stroke:#FFFFFF;stroke-width:2;stroke-linecap:round;stroke-linejoin:round;stroke-miterlimit:22.9256;}
</style>
<g>
	<circle class="st0" cx="47.5" cy="47.5" r="47.5"/>
	<g>
		<line class="st1" x1="20.9" y1="66.8" x2="48" y2="66.8"/>
		<polyline class="st1" points="22.7,66.4 22.7,42.9 31.8,42.9 31.8,66.4 		"/>
		<polyline class="st1" points="37.2,66.4 37.2,32.7 46.3,32.7 46.3,66.4 		"/>
		<polyline class="st1" points="51.7,50.5 51.7,21.5 60.8,21.5 60.8,46.1 		"/>
		<path class="st1" d="M61.7,46.7c-7.9,0-14.4,6.4-14.4,14.4c0,7.9,6.4,14.4,14.4,14.4c7.9,0,14.4-6.4,14.4-14.4
			C76.1,53.1,69.7,46.7,61.7,46.7L61.7,46.7z"/>
		<path class="st1" d="M67.2,54.8c-1.1,0.5-10.3,10.5-11.8,12"/>
		<polyline class="st1" points="67.2,65 67.2,54.8 57,54.8 		"/>
	</g>
</g>
</svg>
