<?xml version="1.0" encoding="utf-8"?>
<!-- Generator: Adobe Illustrator 19.2.0, SVG Export Plug-In . SVG Version: 6.00 Build 0)  -->
<svg version="1.1" id="Layer_1" xmlns="http://www.w3.org/2000/svg" xmlns:xlink="http://www.w3.org/1999/xlink" x="0px" y="0px"
	 viewBox="0 0 95 95" style="enable-background:new 0 0 95 95;" xml:space="preserve">
<style type="text/css">
	.st0{fill:#F75831;}
	.st1{fill:none;stroke:#FFFFFF;stroke-width:2;stroke-linecap:round;stroke-linejoin:round;stroke-miterlimit:22.9256;}
</style>
<g>
	<circle class="st0" cx="47.5" cy="47.5" r="47.5"/>
	<g>
		<path class="st1" d="M68.2,53.5l3.5-3.5c6.1-6.1,3.1-14.3-1.8-19.6c-1.6-1.7-3.5-3.2-5.4-4.3c-2.5-1.4-10.3-3.4-15.4,1.5
			L38.5,38.2c-2.9,2.8,4.4,5.6,8,2l2.7-2.6c3.9-3.6,8.9,3.6,15.1-1.3"/>
		<path class="st1" d="M26.9,51.9l-3.5-3.5C11.7,36.6,32,16.5,43.9,28.1l2.4,2.4"/>
		<path class="st1" d="M54.8,40.1l13.6,14.3c2.8,2.9-1.4,8.5-4.9,4.8l-6.4-6.6"/>
		<path class="st1" d="M51.6,57.1l7,7.2c2.8,2.9,8.5-1.4,4.9-5.1l-6.9-7.1"/>
		<path class="st1" d="M49.5,65l3.5,3.5c2.8,2.9,8.4-1.2,4.8-4.9"/>
		<path class="st1" d="M35.3,48.9l0.4,0.4c1.3,1.3,1.3,3.4,0,4.6l-4.9,4.9c-1.3,1.3-3.3,1.3-4.6,0l-0.4-0.4c-1.3-1.3-1.3-3.3,0-4.6
			l4.9-4.9C32,47.7,34,47.7,35.3,48.9L35.3,48.9z M43.5,51.2l0.4,0.4c1.3,1.3,1.3,3.4,0,4.6l-7.7,7.7c-1.3,1.3-3.4,1.3-4.6,0
			l-0.4-0.4c-1.3-1.3-1.3-3.3,0-4.6l7.7-7.7C40.1,49.9,42.2,49.9,43.5,51.2L43.5,51.2z M46.6,58.4l0.4,0.4c1.3,1.3,1.3,3.3,0,4.6
			l-5.3,5.3c-1.3,1.3-3.3,1.3-4.6,0l-0.4-0.4c-1.3-1.3-1.3-3.3,0-4.6l5.3-5.3C43.3,57.1,45.4,57.1,46.6,58.4L46.6,58.4z M50.1,65.3
			l0.4,0.4c1.3,1.3,1.3,3.4,0,4.6l-3.3,3.3c-1.3,1.3-3.4,1.3-4.6,0l-0.4-0.4c-1.3-1.3-1.3-3.3,0-4.6l3.3-3.3
			C46.7,64,48.8,64,50.1,65.3L50.1,65.3z"/>
	</g>
</g>
</svg>
