<?xml version="1.0" encoding="utf-8"?>
<!-- Generator: Adobe Illustrator 19.2.0, SVG Export Plug-In . SVG Version: 6.00 Build 0)  -->
<svg version="1.1" id="Layer_1" xmlns="http://www.w3.org/2000/svg" xmlns:xlink="http://www.w3.org/1999/xlink" x="0px" y="0px"
	 viewBox="0 0 95 95" style="enable-background:new 0 0 95 95;" xml:space="preserve">
<style type="text/css">
	.st0{fill:#F75831;}
	.st1{fill:none;stroke:#FFFFFF;stroke-width:2;stroke-linecap:round;stroke-linejoin:round;stroke-miterlimit:22.9256;}
</style>
<circle class="st0" cx="47.5" cy="47.5" r="47.5"/>
<g>
	<path class="st1" d="M42.2,37.1h9.4c0.7,0,1.2,0.6,1.3,1.3l2.1,8.3c0.2,0.7-0.6,1.3-1.3,1.3H40.1c-0.7,0-1.5-0.6-1.3-1.3l2.1-8.3
		C41.1,37.7,41.5,37.1,42.2,37.1L42.2,37.1z"/>
	<path class="st1" d="M33.9,48.1h9.4c0.7,0,1.2,0.6,1.3,1.3l2.1,8.3c0.2,0.7-0.6,1.3-1.3,1.3H31.9c-0.7,0-1.5-0.6-1.3-1.3l2.1-8.3
		C32.8,48.7,33.2,48.1,33.9,48.1L33.9,48.1z"/>
	<path class="st1" d="M51.3,48.1h9.4c0.7,0,1.2,0.6,1.3,1.3l2.1,8.3c0.2,0.7-0.6,1.3-1.3,1.3H49.2c-0.7,0-1.5-0.6-1.3-1.3l2.1-8.3
		C50.1,48.7,50.5,48.1,51.3,48.1L51.3,48.1z"/>
	<path class="st1" d="M25.7,59.1H35c0.7,0,1.2,0.6,1.3,1.3l2.1,8.3c0.2,0.7-0.6,1.3-1.3,1.3H23.6c-0.7,0-1.5-0.6-1.3-1.3l2.1-8.3
		C24.5,59.8,24.9,59.1,25.7,59.1L25.7,59.1z"/>
	<path class="st1" d="M43,59.1h9.4c0.7,0,1.2,0.6,1.3,1.3l2.1,8.3c0.2,0.7-0.6,1.3-1.3,1.3H40.9c-0.7,0-1.5-0.6-1.3-1.3l2.1-8.3
		C41.8,59.8,42.2,59.1,43,59.1L43,59.1z"/>
	<path class="st1" d="M60.3,59.1h9.4c0.7,0,1.2,0.6,1.3,1.3l2.1,8.3c0.2,0.7-0.6,1.3-1.3,1.3H58.2c-0.7,0-1.5-0.6-1.3-1.3l2.1-8.3
		C59.1,59.8,59.6,59.1,60.3,59.1L60.3,59.1z"/>
	<line class="st1" x1="47" y1="22.3" x2="47" y2="29.2"/>
	<line class="st1" x1="61.7" y1="26.1" x2="58.2" y2="32"/>
	<line class="st1" x1="72.5" y1="36.7" x2="66.5" y2="40.1"/>
	<line class="st1" x1="32.5" y1="26.4" x2="35.9" y2="32.3"/>
	<line class="st1" x1="21.9" y1="37.2" x2="27.8" y2="40.6"/>
</g>
</svg>
