<?xml version="1.0" encoding="utf-8"?>
<!-- Generator: Adobe Illustrator 19.2.0, SVG Export Plug-In . SVG Version: 6.00 Build 0)  -->
<svg version="1.1" id="Layer_1" xmlns="http://www.w3.org/2000/svg" xmlns:xlink="http://www.w3.org/1999/xlink" x="0px" y="0px"
	 viewBox="0 0 70 70" style="enable-background:new 0 0 70 70;" xml:space="preserve">
<style type="text/css">
	.st0{fill:none;stroke:#F75831;stroke-width:2.5;stroke-linecap:round;stroke-linejoin:round;stroke-miterlimit:22.9256;}
</style>
<g>
	<path class="st0" d="M30,52.9c2.8,0,5,2.2,5,5c0,2.8-2.2,5-5,5s-5-2.2-5-5C25,55.1,27.2,52.9,30,52.9L30,52.9z"/>
	<path class="st0" d="M50.8,52.9c2.8,0,5,2.2,5,5c0,2.8-2.2,5-5,5c-2.8,0-5-2.2-5-5C45.8,55.1,48,52.9,50.8,52.9L50.8,52.9z"/>
	<polyline class="st0" points="3.4,9.6 19.3,9.6 25.7,42.9 58.8,42.9 	"/>
	<line class="st0" x1="24.7" y1="34.2" x2="62.3" y2="34.2"/>
	<line class="st0" x1="23.5" y1="25.4" x2="64.6" y2="25.4"/>
</g>
</svg>
