<?xml version="1.0" encoding="utf-8"?>
<!-- Generator: Adobe Illustrator 19.2.0, SVG Export Plug-In . SVG Version: 6.00 Build 0)  -->
<svg version="1.1" id="Layer_1" xmlns="http://www.w3.org/2000/svg" xmlns:xlink="http://www.w3.org/1999/xlink" x="0px" y="0px"
	 viewBox="0 0 30 30" style="enable-background:new 0 0 30 30;" xml:space="preserve">
<style type="text/css">
	.st0{fill:#336699;}
	.st1{fill:#FFFFFF;}
</style>
<g>
	<path class="st0" d="M15,30c8.3,0,15-6.7,15-15S23.3,0,15,0S0,6.7,0,15S6.7,30,15,30"/>
	<path class="st1" d="M11.7,13.2h1.6v-1.5c0-0.7,0-1.7,0.5-2.4c0.5-0.7,1.2-1.2,2.4-1.2c2,0,2.8,0.3,2.8,0.3l-0.4,2.3
		c0,0-0.6-0.2-1.3-0.2c-0.6,0-1.2,0.2-1.2,0.8v1.8h2.5l-0.2,2.3h-2.3v7.9h-3v-7.9h-1.6C11.7,15.5,11.7,13.2,11.7,13.2z"/>
</g>
</svg>
