<?xml version="1.0" encoding="utf-8"?>
<!-- Generator: Adobe Illustrator 19.2.0, SVG Export Plug-In . SVG Version: 6.00 Build 0)  -->
<svg version="1.1" id="Layer_1" xmlns="http://www.w3.org/2000/svg" xmlns:xlink="http://www.w3.org/1999/xlink" x="0px" y="0px"
	 viewBox="0 0 30 30" style="enable-background:new 0 0 30 30;" xml:space="preserve">
<style type="text/css">
	.st0{fill:url(#SVGID_1_);}
	.st1{fill:#FFFFFF;}
</style>
<linearGradient id="SVGID_1_" gradientUnits="userSpaceOnUse" x1="15" y1="30.25" x2="15" y2="0.25">
	<stop  offset="9.694000e-02" style="stop-color:#FFD879"/>
	<stop  offset="0.1539" style="stop-color:#FCCB76"/>
	<stop  offset="0.2583" style="stop-color:#F5AA6C"/>
	<stop  offset="0.3976" style="stop-color:#E9755E"/>
	<stop  offset="0.449" style="stop-color:#E45F58"/>
	<stop  offset="0.6786" style="stop-color:#D22A9C"/>
	<stop  offset="1" style="stop-color:#6968DF"/>
</linearGradient>
<path class="st0" d="M15,30c8.3,0,15-6.7,15-15S23.3,0,15,0S0,6.7,0,15S6.7,30,15,30"/>
<g id="Symbol">
	<path class="st1" d="M20.1,6.7H9.9c-1.8,0-3.2,1.4-3.2,3.2v3.4v6.9c0,1.8,1.4,3.2,3.2,3.2h10.3c1.8,0,3.2-1.4,3.2-3.2v-6.8V9.9
		C23.3,8.1,21.9,6.7,20.1,6.7z M21,8.6h0.4V9v2.5h-2.8V8.6L21,8.6z M12.6,13.3c0.5-0.7,1.4-1.2,2.4-1.2s1.9,0.5,2.4,1.2
		c0.4,0.5,0.6,1.1,0.6,1.7c0,1.6-1.3,2.9-2.9,2.9S12,16.6,12,15C12,14.4,12.3,13.8,12.6,13.3z M21.7,20.2c0,0.9-0.7,1.6-1.6,1.6H9.9
		c-0.9,0-1.6-0.7-1.6-1.6v-6.9h2.5c-0.2,0.5-0.4,1.1-0.4,1.7c0,2.5,2.1,4.6,4.6,4.6s4.6-2.1,4.6-4.6c0-0.6-0.1-1.2-0.4-1.7h2.5
		L21.7,20.2L21.7,20.2z"/>
</g>
</svg>
