<?xml version="1.0" encoding="utf-8"?>
<!-- Generator: Adobe Illustrator 19.2.0, SVG Export Plug-In . SVG Version: 6.00 Build 0)  -->
<svg version="1.1" id="Layer_1" xmlns="http://www.w3.org/2000/svg" xmlns:xlink="http://www.w3.org/1999/xlink" x="0px" y="0px"
	 viewBox="0 0 25 25" style="enable-background:new 0 0 25 25;" xml:space="preserve">
<style type="text/css">
	.st0{fill:none;stroke:#FFFFFF;stroke-linecap:round;stroke-linejoin:round;stroke-miterlimit:22.9256;}
</style>
<path class="st0" d="M6.6,8.3v0.8v13.5c0,0.7,0.6,1.3,1.3,1.3H17c0.7,0,1.3-0.6,1.3-1.3V8.3"/>
<line class="st0" x1="8.7" y1="22" x2="8.7" y2="20.5"/>
<line class="st0" x1="8.7" y1="18.7" x2="8.7" y2="16.8"/>
<polyline class="st0" points="13.4,8 13.4,23.9 15.6,23.9 15.6,7.9 "/>
<path class="st0" d="M18.7,10.4h0.8c0.4,0,0.7-0.3,0.7-0.7V8.3c0-0.4-0.3-0.7-0.7-0.7h-14C5.1,7.7,4.8,8,4.8,8.3v1.4
	c0,0.4,0.3,0.7,0.7,0.7h0.8"/>
<path class="st0" d="M6.3,13.8H3c-0.5,0-0.8-0.4-0.8-0.8V4.7c0-0.5,0.4-0.8,0.8-0.8H22c0.5,0,0.8,0.4,0.8,0.8V13
	c0,0.5-0.4,0.8-0.8,0.8h-3.2"/>
</svg>
