<?xml version="1.0" encoding="utf-8"?>
<!-- Generator: Adobe Illustrator 19.2.0, SVG Export Plug-In . SVG Version: 6.00 Build 0)  -->
<svg version="1.1" id="Layer_1" xmlns="http://www.w3.org/2000/svg" xmlns:xlink="http://www.w3.org/1999/xlink" x="0px" y="0px"
	 viewBox="0 0 25 25" style="enable-background:new 0 0 25 25;" xml:space="preserve">
<style type="text/css">
	.st0{fill:none;stroke:#FFFFFF;stroke-linecap:round;stroke-linejoin:round;stroke-miterlimit:22.9256;}
	.st1{fill:none;stroke:#FFFFFF;stroke-miterlimit:22.9256;}
</style>
<g>
	<path class="st0" d="M23.7,4.1H1.3V20c12.5,0,15.9,0,22.3,0V4.1L23.7,4.1z"/>
	<path class="st1" d="M5.3,12.7c-0.8,0-1.5,0.7-1.5,1.5s0.7,1.5,1.5,1.5c0.8,0,1.5-0.7,1.5-1.5S6.1,12.7,5.3,12.7L5.3,12.7z"/>
	<path class="st1" d="M10.1,7.8c-0.8,0-1.5,0.7-1.5,1.5c0,0.8,0.7,1.5,1.5,1.5c0.8,0,1.5-0.7,1.5-1.5C11.6,8.5,10.9,7.8,10.1,7.8
		L10.1,7.8z"/>
	<path class="st1" d="M14.9,12.2c-0.8,0-1.5,0.7-1.5,1.5c0,0.8,0.7,1.5,1.5,1.5c0.8,0,1.5-0.7,1.5-1.5
		C16.4,12.8,15.7,12.2,14.9,12.2L14.9,12.2z"/>
	<path class="st1" d="M19.7,10c-0.8,0-1.5,0.7-1.5,1.5c0,0.8,0.7,1.5,1.5,1.5c0.8,0,1.5-0.7,1.5-1.5C21.2,10.6,20.5,10,19.7,10
		L19.7,10z"/>
	<line class="st0" x1="6.6" y1="12.8" x2="8.9" y2="10.6"/>
	<line class="st0" x1="11.4" y1="10.5" x2="13.7" y2="12.6"/>
	<line class="st0" x1="16.4" y1="13" x2="18.1" y2="12.2"/>
	<line class="st0" x1="7.2" y1="23.9" x2="17.8" y2="23.9"/>
	<line class="st0" x1="9.8" y1="23.4" x2="9.8" y2="20.2"/>
	<line class="st0" x1="15.2" y1="23.4" x2="15.2" y2="20.2"/>
</g>
</svg>
