<?xml version="1.0" encoding="utf-8"?>
<!-- Generator: Adobe Illustrator 19.2.0, SVG Export Plug-In . SVG Version: 6.00 Build 0)  -->
<svg version="1.1" id="Layer_1" xmlns="http://www.w3.org/2000/svg" xmlns:xlink="http://www.w3.org/1999/xlink" x="0px" y="0px"
	 viewBox="0 0 70 70" style="enable-background:new 0 0 70 70;" xml:space="preserve">
<style type="text/css">
	.st0{fill:none;stroke:#F75831;stroke-width:2.5;stroke-linecap:round;stroke-linejoin:round;stroke-miterlimit:22.9256;}
</style>
<g>
	<path class="st0" d="M35,36.3c1.5,0,2.9,0.2,4.3,0.5l0.5,5.4c1.1,0.3,2.1,0.8,3.1,1.3l4.2-3.5c1.2,0.7,2.3,1.6,3.4,2.7
		c1,1,1.9,2.2,2.7,3.4l-3.5,4.2c0.5,1,1,2,1.3,3.1l5.4,0.5c0.3,1.4,0.5,2.8,0.5,4.3c0,1.5-0.2,2.9-0.5,4.3L51,62.9l0,0H19l0,0
		l-5.4-0.5c-0.3-1.4-0.5-2.8-0.5-4.3c0-1.5,0.2-2.9,0.5-4.3l5.4-0.5c0.3-1.1,0.8-2.1,1.3-3.1L16.9,46c0.7-1.2,1.6-2.3,2.7-3.4
		c1-1,2.2-1.9,3.4-2.7l4.2,3.5c1-0.5,2-1,3.1-1.3l0.5-5.4C32.1,36.4,33.5,36.3,35,36.3L35,36.3z M35,49.3c4.9,0,8.8,3.9,8.8,8.8
		c0,1.8-0.5,3.4-1.4,4.8H27.6c-0.9-1.4-1.4-3-1.4-4.8C26.2,53.3,30.1,49.3,35,49.3L35,49.3z"/>
	<path class="st0" d="M66.7,7.1H3.3v55.9c35.6,0,45.3,0,63.4,0V7.1L66.7,7.1z"/>
	<line class="st0" x1="66.7" y1="20.3" x2="3.3" y2="20.3"/>
	<path class="st0" d="M58.7,12.5c-0.8,0-1.4,0.6-1.4,1.4c0,0.8,0.6,1.4,1.4,1.4c0.8,0,1.4-0.6,1.4-1.4
		C60.1,13.1,59.5,12.5,58.7,12.5L58.7,12.5z"/>
	<path class="st0" d="M49.7,12.5c-0.8,0-1.4,0.6-1.4,1.4c0,0.8,0.6,1.4,1.4,1.4c0.8,0,1.4-0.6,1.4-1.4
		C51.1,13.1,50.5,12.5,49.7,12.5L49.7,12.5z"/>
</g>
</svg>
