<?xml version="1.0" encoding="utf-8"?>
<!-- Generator: Adobe Illustrator 19.2.0, SVG Export Plug-In . SVG Version: 6.00 Build 0)  -->
<svg version="1.1" id="Layer_1" xmlns="http://www.w3.org/2000/svg" xmlns:xlink="http://www.w3.org/1999/xlink" x="0px" y="0px"
	 viewBox="0 0 70 70" style="enable-background:new 0 0 70 70;" xml:space="preserve">
<style type="text/css">
	.st0{fill:none;stroke:#F75831;stroke-width:2.5;stroke-linecap:round;stroke-linejoin:round;stroke-miterlimit:22.9256;}
</style>
<g>
	<path class="st0" d="M66.4,7.4H3.6V52c35.2,0,44.8,0,62.7,0V7.4L66.4,7.4z"/>
	<path class="st0" d="M14.7,31.6c-2.3,0-4.1,1.8-4.1,4.1s1.8,4.1,4.1,4.1c2.3,0,4.1-1.8,4.1-4.1S17,31.6,14.7,31.6L14.7,31.6z"/>
	<path class="st0" d="M28.2,17.9c-2.3,0-4.1,1.8-4.1,4.1c0,2.3,1.8,4.1,4.1,4.1c2.3,0,4.1-1.8,4.1-4.1
		C32.4,19.7,30.5,17.9,28.2,17.9L28.2,17.9z"/>
	<path class="st0" d="M41.8,30.2c-2.3,0-4.1,1.8-4.1,4.1c0,2.3,1.8,4.1,4.1,4.1c2.3,0,4.1-1.8,4.1-4.1C45.9,32,44,30.2,41.8,30.2
		L41.8,30.2z"/>
	<path class="st0" d="M55.3,23.9c-2.3,0-4.1,1.8-4.1,4.1c0,2.3,1.8,4.1,4.1,4.1c2.3,0,4.1-1.8,4.1-4.1
		C59.4,25.8,57.6,23.9,55.3,23.9L55.3,23.9z"/>
	<line class="st0" x1="18.4" y1="32" x2="24.8" y2="25.7"/>
	<line class="st0" x1="32" y1="25.4" x2="38.4" y2="31.3"/>
	<line class="st0" x1="45.8" y1="32.6" x2="50.7" y2="30.2"/>
	<line class="st0" x1="20" y1="63" x2="50" y2="63"/>
	<line class="st0" x1="27.4" y1="61.5" x2="27.4" y2="52.7"/>
	<line class="st0" x1="42.6" y1="61.5" x2="42.6" y2="52.7"/>
</g>
</svg>
