<?xml version="1.0" encoding="utf-8"?>
<!-- Generator: Adobe Illustrator 19.2.0, SVG Export Plug-In . SVG Version: 6.00 Build 0)  -->
<svg version="1.1" id="Layer_1" xmlns="http://www.w3.org/2000/svg" xmlns:xlink="http://www.w3.org/1999/xlink" x="0px" y="0px"
	 viewBox="0 0 30 30" style="enable-background:new 0 0 30 30;" xml:space="preserve">
<style type="text/css">
	.st0{fill:#54769D;}
	.st1{fill:#FFFFFF;}
</style>
<g>
	<path class="st0" d="M15,30c8.3,0,15-6.7,15-15S23.3,0,15,0S0,6.7,0,15S6.7,30,15,30"/>
	<path class="st1" d="M14.6,21.5h1.1c0,0,0.3,0,0.5-0.2c0.2-0.1,0.2-0.4,0.2-0.4s0-1.4,0.6-1.6c0.6-0.2,1.5,1.4,2.3,2
		c0.7,0.5,1.2,0.3,1.2,0.3h2.3c0,0,1.2-0.1,0.6-1c0-0.1-0.3-0.7-1.7-2c-1.5-1.3-1.3-1.1,0.5-3.5c1.1-1.4,1.5-2.3,1.3-2.7
		c-0.1-0.3-0.9-0.3-0.9-0.3H20c0,0-0.2,0-0.3,0.1c-0.1,0.1-0.2,0.3-0.2,0.3s-0.4,1.1-1,2.1c-1.2,2-1.6,2.1-1.8,2
		c-0.5-0.3-0.3-1.2-0.3-1.8c0-1.9,0.3-2.7-0.6-2.9c-0.3-0.1-0.5-0.1-1.2-0.1c-0.9,0-1.7,0-2.2,0.2c-0.3,0.1-0.5,0.5-0.4,0.5
		c0.2,0,0.6,0.1,0.8,0.4c0.3,0.4,0.3,1.2,0.3,1.2s0.2,2.2-0.4,2.5c-0.3,0.2-0.8-0.2-1.9-2c-0.6-1-1-2-1-2s-0.1-0.2-0.2-0.3
		c-0.1-0.1-0.4-0.2-0.4-0.2H6.6c0,0-0.4,0-0.5,0.2c-0.1,0.2,0,0.5,0,0.5s1.9,4.6,4.2,6.9C12.3,21.6,14.6,21.5,14.6,21.5z"/>
</g>
</svg>
