<?xml version="1.0" encoding="utf-8"?>
<!-- Generator: Adobe Illustrator 19.2.0, SVG Export Plug-In . SVG Version: 6.00 Build 0)  -->
<svg version="1.1" id="Layer_1" xmlns="http://www.w3.org/2000/svg" xmlns:xlink="http://www.w3.org/1999/xlink" x="0px" y="0px"
	 viewBox="0 0 40 40" style="enable-background:new 0 0 40 40;" xml:space="preserve">
<style type="text/css">
	.st0{fill:#989CA1;}
</style>
<g>
	<g>
		<path class="st0" d="M20,40L20,40c-5.3,0-10.4-2.1-14.2-5.9c-7.8-7.8-7.8-20.5,0-28.3C9.6,2.1,14.7,0,20,0
			c5.3,0,10.4,2.1,14.1,5.9C37.9,9.6,40,14.7,40,20s-2.1,10.4-5.9,14.1C30.4,37.9,25.3,40,20,40L20,40z M20,3.4
			c-4.4,0-8.6,1.7-11.7,4.9c-6.5,6.5-6.5,17,0,23.5c3.1,3.1,7.3,4.9,11.7,4.9h0c4.4,0,8.6-1.7,11.7-4.9c3.1-3.1,4.9-7.3,4.9-11.7
			s-1.7-8.6-4.9-11.7C28.6,5.1,24.4,3.4,20,3.4L20,3.4z"/>
	</g>
	<g>
		<path class="st0" d="M22.4,29.9c-0.4,0-0.9-0.2-1.2-0.5L13,21.2c-0.3-0.3-0.5-0.8-0.5-1.2c0-0.5,0.2-0.9,0.5-1.2l8.2-8.2
			c0.7-0.7,1.7-0.7,2.4,0c0.7,0.7,0.7,1.7,0,2.4l-7,7l7,7c0.7,0.7,0.7,1.7,0,2.4C23.3,29.8,22.8,29.9,22.4,29.9L22.4,29.9z"/>
	</g>
</g>
</svg>
