<?xml version="1.0" encoding="utf-8"?>
<!-- Generator: Adobe Illustrator 19.2.0, SVG Export Plug-In . SVG Version: 6.00 Build 0)  -->
<svg version="1.1" id="Layer_1" xmlns="http://www.w3.org/2000/svg" xmlns:xlink="http://www.w3.org/1999/xlink" x="0px" y="0px"
	 viewBox="0 0 40 40" style="enable-background:new 0 0 40 40;" xml:space="preserve">
<style type="text/css">
	.st0{fill:#FFFFFF;}
</style>
<g>
	<g>
		<path class="st0" d="M20,0L20,0c5.3,0,10.4,2.1,14.2,5.9c7.8,7.8,7.8,20.5,0,28.3C30.4,37.9,25.3,40,20,40
			c-5.3,0-10.4-2.1-14.1-5.9C2.1,30.4,0,25.3,0,20S2.1,9.6,5.9,5.9C9.6,2.1,14.7,0,20,0L20,0z M20,36.6c4.4,0,8.6-1.7,11.7-4.9
			c6.5-6.5,6.5-17,0-23.5C28.6,5.1,24.4,3.4,20,3.4h0c-4.4,0-8.6,1.7-11.7,4.9C5.1,11.4,3.4,15.6,3.4,20s1.7,8.6,4.9,11.7
			C11.4,34.9,15.6,36.6,20,36.6L20,36.6z"/>
	</g>
	<g>
		<path class="st0" d="M17.6,10.1c0.4,0,0.9,0.2,1.2,0.5l8.2,8.2c0.3,0.3,0.5,0.8,0.5,1.2c0,0.5-0.2,0.9-0.5,1.2l-8.2,8.2
			c-0.7,0.7-1.7,0.7-2.4,0c-0.7-0.7-0.7-1.7,0-2.4l7-7l-7-7c-0.7-0.7-0.7-1.7,0-2.4C16.7,10.2,17.2,10.1,17.6,10.1L17.6,10.1z"/>
	</g>
</g>
</svg>
